<?xml version="1.0" standalone="no"?>
<!DOCTYPE svg PUBLIC "-//W3C//DTD SVG 20010904//EN"
 "http://www.w3.org/TR/2001/REC-SVG-20010904/DTD/svg10.dtd">
<svg version="1.0" xmlns="http://www.w3.org/2000/svg"
 width="700.000000pt" height="700.000000pt" viewBox="0 0 700.000000 700.000000"
 preserveAspectRatio="xMidYMid meet">
<metadata>
Created by potrace 1.11, written by Peter Selinger 2001-2013
</metadata>
<g transform="translate(0.000000,700.000000) scale(0.100000,-0.100000)"
fill="#000000" stroke="none">
<path d="M3401 6814 c-25 -12 -64 -40 -86 -61 -22 -21 -103 -94 -180 -163 -77
-68 -147 -131 -156 -139 -9 -9 -49 -45 -90 -81 -112 -99 -279 -249 -324 -289
-22 -20 -105 -95 -185 -166 -80 -71 -150 -134 -156 -140 -15 -14 -128 -114
-314 -280 -85 -75 -175 -156 -200 -179 -25 -23 -106 -96 -180 -161 -74 -66
-140 -124 -146 -130 -6 -5 -46 -41 -89 -80 -43 -38 -86 -77 -95 -85 -8 -8 -94
-85 -190 -170 -96 -85 -179 -160 -185 -166 -5 -6 -98 -89 -205 -184 -107 -95
-211 -187 -230 -204 -19 -18 -84 -76 -145 -130 -192 -172 -221 -203 -235 -250
-24 -88 15 -186 90 -226 44 -23 100 -29 149 -14 46 13 72 34 265 208 102 92
88 79 191 171 50 44 112 100 138 125 27 25 54 48 61 52 10 6 13 -347 13 -1735
0 -1610 2 -1747 18 -1807 47 -181 202 -325 384 -360 32 -6 273 -10 605 -10
440 0 565 3 619 15 162 34 294 157 343 320 17 56 18 125 19 979 l1 918 25 22
26 22 544 -1 c299 -1 552 -5 561 -9 10 -4 21 -18 25 -29 4 -12 8 -425 9 -917
0 -492 4 -913 8 -935 30 -184 188 -345 367 -375 30 -5 315 -8 634 -7 l580 2
63 26 c118 50 197 130 261 264 81 167 75 22 76 1917 0 929 3 1687 6 1685 5 -1
460 -406 579 -514 80 -73 200 -72 274 2 51 51 68 131 41 201 -17 45 -55 88
-165 184 -35 30 -68 60 -74 65 -6 6 -74 66 -151 135 -77 69 -145 129 -151 135
-6 5 -46 42 -90 80 -43 39 -128 115 -189 170 -62 55 -147 132 -191 171 -77 69
-214 191 -366 327 -42 37 -85 76 -96 85 -18 16 -69 62 -232 208 -25 22 -65 58
-89 80 -24 21 -49 44 -55 49 -6 6 -94 84 -196 175 -102 91 -187 167 -190 170
-3 3 -86 77 -185 165 -99 88 -187 167 -196 175 -19 18 -166 149 -229 205 -25
22 -47 42 -50 45 -3 3 -48 43 -100 89 -52 47 -102 91 -111 100 -9 9 -43 39
-75 67 -32 29 -73 65 -89 80 -142 135 -209 158 -314 108z m214 -539 c6 -5 96
-87 200 -180 105 -93 195 -174 201 -180 26 -24 178 -160 264 -235 40 -36 78
-70 84 -75 6 -6 54 -49 106 -95 52 -47 100 -89 106 -95 9 -8 127 -114 168
-150 6 -5 34 -30 62 -55 27 -25 88 -79 134 -120 46 -41 94 -84 105 -95 12 -11
57 -51 101 -90 43 -38 84 -74 90 -80 17 -15 152 -137 314 -282 l145 -130 -1
-1849 c0 -1740 -1 -1852 -18 -1901 -9 -29 -30 -66 -46 -83 l-28 -30 -526 0
c-538 0 -565 2 -582 39 -4 9 -8 416 -9 906 -1 490 -5 912 -9 938 -16 112 -75
214 -170 295 -14 12 -29 22 -32 22 -3 0 -18 8 -32 18 -15 10 -56 27 -92 37
-60 18 -103 19 -630 19 -311 0 -585 -3 -610 -6 -142 -20 -270 -110 -338 -238
-57 -106 -56 -90 -58 -1065 -1 -495 -2 -906 -3 -912 0 -7 -10 -22 -21 -33 -20
-20 -33 -20 -569 -20 l-549 0 -31 29 c-17 16 -32 37 -32 48 -1 10 -2 870 -3
1912 l-1 1894 84 76 c47 42 92 83 101 91 9 8 47 42 85 75 37 33 73 65 79 71
10 9 79 71 163 145 65 58 238 213 249 223 6 6 26 25 45 41 83 74 485 431 495
440 6 5 46 42 89 80 43 39 101 91 129 116 28 25 121 108 206 184 85 75 172
153 192 171 20 18 85 77 145 130 59 53 110 100 111 105 3 8 104 -70 137 -106z"/>
</g>
</svg>
