<svg xmlns="http://www.w3.org/2000/svg" width="351" height="351" viewBox="0 0 351 351">
  <clipPath id="ticks">
    <path d="M174.72829,0 L176.808757,0 L176.808757,26.0058348 L174.72829,26.0058348 L174.72829,0 Z M196.659328,1.24974717 L198.724287,1.50329229 L195.554973,27.3152836 L193.490014,27.0617385 L196.659328,1.24974717 Z M218.261382,5.23279879 L220.28005,5.73610926 L213.988669,30.9694597 L211.970001,30.4661492 L218.261382,5.23279879 Z M239.412945,11.9527638 L241.34192,12.7321203 L231.599963,36.8443105 L229.670988,36.064954 L239.412945,11.9527638 Z M259.339911,21.1985023 L261.159528,22.2071326 L248.551649,44.9523482 L246.732032,43.9437179 L259.339911,21.1985023 Z M277.95356,32.8639388 L279.636693,34.0868065 L264.350847,55.1259689 L262.667714,53.9031012 L277.95356,32.8639388 Z M294.96156,46.7657462 L296.483117,48.1846211 L278.74718,67.2040847 L277.225623,65.7852097 L294.96156,46.7657462 Z M310.096809,62.6854713 L311.434108,64.2792013 L291.512482,80.9954297 L290.175184,79.4016997 L310.096809,62.6854713 Z M323.258887,80.5546141 L324.361366,82.31895 L302.307168,96.0999429 L301.204688,94.335607 L323.258887,80.5546141 Z M333.945632,99.7473502 L334.824875,101.632893 L311.255585,112.623434 L310.376342,110.737891 L333.945632,99.7473502 Z M342.147619,120.125715 L342.790519,122.104357 L318.0575,130.140602 L317.414601,128.16196 L342.147619,120.125715 Z M347.736103,141.369565 L348.133074,143.411808 L322.60504,148.373955 L322.208068,146.331712 L347.736103,141.369565 Z M350.623397,163.14517 L350.768523,165.220569 L324.826037,167.034644 L324.680911,164.959245 L350.623397,163.14517 Z M350.768523,185.338085 L350.623397,187.413484 L324.680911,185.599409 L324.826037,183.52401 L350.768523,185.338085 Z M348.133074,207.146846 L347.736103,209.189089 L322.208068,204.226942 L322.60504,202.184699 L348.133074,207.146846 Z M342.790519,228.454297 L342.147619,230.432938 L317.414601,222.396693 L318.0575,220.418052 L342.790519,228.454297 Z M334.824875,248.92576 L333.945632,250.811303 L310.376342,239.820763 L311.255585,237.93522 L334.824875,248.92576 Z M324.361366,268.239704 L323.258887,270.00404 L301.204688,256.223047 L302.307168,254.458711 L324.361366,268.239704 Z M311.434108,286.279452 L310.096809,287.873182 L290.175184,271.156954 L291.512482,269.563224 L311.434108,286.279452 Z M296.483117,302.374033 L294.96156,303.792908 L277.225623,284.773444 L278.74718,283.354569 L296.483117,302.374033 Z M279.636693,316.471847 L277.95356,317.694715 L262.667714,296.655553 L264.350847,295.432685 L279.636693,316.471847 Z M261.159528,328.351521 L259.339911,329.360151 L246.732032,306.614936 L248.551649,305.606305 L261.159528,328.351521 Z M241.34192,337.826533 L239.412945,338.60589 L229.670988,314.4937 L231.599963,313.714343 L241.34192,337.826533 Z M220.28005,344.822544 L218.261382,345.325855 L211.970001,320.092505 L213.988669,319.589194 L220.28005,344.822544 Z M198.724287,349.055361 L196.659328,349.308907 L193.490014,323.496915 L195.554973,323.24337 L198.724287,349.055361 Z M176.808757,350.558654 L174.72829,350.558654 L174.72829,324.552819 L176.808757,324.552819 L176.808757,350.558654 Z M154.877719,349.308907 L152.812759,349.055361 L155.982073,323.24337 L158.047033,323.496915 L154.877719,349.308907 Z M133.275665,345.325855 L131.256997,344.822544 L137.548378,319.589194 L139.567046,320.092505 L133.275665,345.325855 Z M112.124102,338.60589 L110.195126,337.826533 L119.937084,313.714343 L121.866059,314.4937 L112.124102,338.60589 Z M92.197136,329.360151 L90.3775187,328.351521 L102.985398,305.606305 L104.805015,306.614936 L92.197136,329.360151 Z M73.5834864,317.694715 L71.9003534,316.471847 L87.1861996,295.432685 L88.8693326,296.655553 L73.5834864,317.694715 Z M56.575487,303.792908 L55.0539299,302.374033 L72.7898666,283.354569 L74.3114237,284.773444 L56.575487,303.792908 Z M41.4402373,287.873182 L40.102939,286.279452 L60.0245643,269.563224 L61.3618626,271.156954 L41.4402373,287.873182 Z M28.2781595,270.00404 L27.17568,268.239704 L49.2298788,254.458711 L50.3323582,256.223047 L28.2781595,270.00404 Z M17.5914143,250.811303 L16.7121711,248.92576 L40.2814617,237.93522 L41.160705,239.820763 L17.5914143,250.811303 Z M9.38942707,230.432938 L8.74652748,228.454297 L33.4795462,220.418052 L34.1224458,222.396693 L9.38942707,230.432938 Z M3.80094386,209.189089 L3.40397208,207.146846 L28.9320065,202.184699 L29.3289783,204.226942 L3.80094386,209.189089 Z M0.91364929,187.413484 L0.768523263,185.338085 L26.7110092,183.52401 L26.8561352,185.599409 L0.91364929,187.413484 Z M0.768523263,165.220569 L0.91364929,163.14517 L26.8561352,164.959245 L26.7110092,167.034644 L0.768523263,165.220569 Z M3.40397208,143.411808 L3.80094386,141.369565 L29.3289783,146.331712 L28.9320065,148.373955 L3.40397208,143.411808 Z M8.74652748,122.104357 L9.38942707,120.125715 L34.1224458,128.16196 L33.4795462,130.140602 L8.74652748,122.104357 Z M16.7121711,101.632893 L17.5914143,99.7473502 L41.160705,110.737891 L40.2814617,112.623434 L16.7121711,101.632893 Z M27.17568,82.31895 L28.2781595,80.5546141 L50.3323582,94.335607 L49.2298788,96.0999429 L27.17568,82.31895 Z M40.102939,64.2792013 L41.4402373,62.6854713 L61.3618626,79.4016997 L60.0245643,80.9954297 L40.102939,64.2792013 Z M55.0539299,48.1846211 L56.575487,46.7657462 L74.3114237,65.7852097 L72.7898666,67.2040847 L55.0539299,48.1846211 Z M71.9003534,34.0868065 L73.5834864,32.8639388 L88.8693326,53.9031012 L87.1861996,55.1259689 L71.9003534,34.0868065 Z M90.3775187,22.2071326 L92.197136,21.1985023 L104.805015,43.9437179 L102.985398,44.9523482 L90.3775187,22.2071326 Z M110.195126,12.7321203 L112.124102,11.9527638 L121.866059,36.064954 L119.937084,36.8443105 L110.195126,12.7321203 Z M131.256997,5.73610926 L133.275665,5.23279879 L139.567046,30.4661492 L137.548378,30.9694597 L131.256997,5.73610926 Z M152.812759,1.50329229 L154.877719,1.24974717 L158.047033,27.0617385 L155.982073,27.3152836 L152.812759,1.50329229 Z"></path>
  </clipPath>
  <circle id="circle" cx="176" cy="175" r="162.5" fill="none" stroke="#979797" stroke-width="25" clip-path="url(#ticks)" stroke-dasharray="1100" stroke-dashoffset="0"></circle>
</svg>
